<svg xmlns="http://www.w3.org/2000/svg" xmlns:xlink="http://www.w3.org/1999/xlink" width="600" height="600" viewBox="0 0 600 600" fill="none">
<path d="M458.934 162.794L401.304 178.625C360.185 142.474 292.817 166.64 290.363 234.067C241.786 226.018 202.818 191.232 170.258 161.142C166.061 176.601 153.821 209.029 168.319 249.128L147.855 255.587C149.784 265.193 151.441 286.889 179.624 310.349L159.527 326.323C174.296 335.881 181.361 340.933 197.989 348.806L197.995 348.785C203.52 351.627 223.415 359.893 246.774 363.989C250.971 359.585 251.927 358.427 265.766 343.042C242.747 337.241 229.429 334.722 206.123 323.226L224.78 308.404C207.828 298.003 192.013 289.763 181.335 272.88L205.831 265.161C197.49 249.723 189.006 237.047 188.145 212.556C237.923 252.108 284.153 263.471 305.366 261.708L319.768 260.464L317.537 246.333C312.203 212.705 333.134 188.214 358.411 188.214C377.817 188.214 388.23 203.281 392.491 208.593L425.428 199.546C419.186 214.155 411.924 220.371 406.611 225.46C434.087 342.553 327.041 425.853 205.172 402.117C213.237 395.669 221.047 388.923 228.6 381.882C223.603 380.657 218.653 379.261 213.752 377.696C208.851 376.13 204.009 374.398 199.227 372.5C179.39 389.617 169.01 395.705 145.805 410.856C165.052 418.24 196.21 432.759 247.449 432.759C364.138 432.759 452.963 344.694 435.522 233.764C456.82 207.621 456.931 183.428 458.929 162.789L458.934 162.794Z"   fill="#111111" >
</path>
</svg>
